<?xml version="1.0" encoding="UTF-8"?>
<svg version="1.1" xmlns="http://www.w3.org/2000/svg" width="512" height="512">
<path d="M0 0 C1.13671143 0.29003906 1.13671143 0.29003906 2.29638672 0.5859375 C26.75022965 6.90289593 48.32700921 18.24114131 68 34 C68.56992676 34.45632812 69.13985352 34.91265625 69.72705078 35.3828125 C77.81944798 41.92141698 84.72463777 48.64466837 91 57 C91.73605469 57.92167969 92.47210938 58.84335938 93.23046875 59.79296875 C107.4208968 77.89125995 116.29498129 98.85587523 122 121 C122.18079102 121.68094727 122.36158203 122.36189453 122.54785156 123.06347656 C130.22158649 153.43804167 126.69122802 193.13278399 112.44586182 221.04518127 C107.90069365 230.23432378 107.56405644 236.65366178 109.3828125 246.90234375 C109.59678962 248.27748224 109.80707272 249.65320001 110.0138855 251.0294342 C110.56143297 254.61171537 111.15486568 258.18475881 111.7600708 261.75769043 C112.48767557 266.10384809 113.16167348 270.45858168 113.84196281 274.81234837 C114.37170796 278.19782978 114.91219037 281.58026474 115.47390747 284.9606781 C115.67346039 286.17626907 115.87301331 287.39186005 116.07861328 288.64428711 C116.25659454 289.70570419 116.43457581 290.76712128 116.61795044 291.86070251 C117.86756648 302.12878525 117.86756648 302.12878525 115 306 C107.29857774 311.05578893 93.27146177 306.40859604 84.69140625 305.08203125 C82.20906828 304.7110267 79.72664381 304.34060056 77.24414062 303.97070312 C73.38319861 303.39073541 69.5230748 302.80642832 65.66430664 302.2121582 C61.90428348 301.63531893 58.1419747 301.07610689 54.37890625 300.51953125 C53.22572403 300.3373555 52.07254181 300.15517975 50.88441467 299.96748352 C43.2761319 298.82839182 43.2761319 298.82839182 36 301 C34.91114502 301.43662964 34.91114502 301.43662964 33.80029297 301.88208008 C33.12111816 302.17493896 32.44194336 302.46779785 31.7421875 302.76953125 C23.16789126 306.3865635 14.66572283 309.62140874 5.625 311.875 C4.86687012 312.06553955 4.10874023 312.2560791 3.32763672 312.45239258 C-8.93602828 315.34496387 -21.10731403 316.38115476 -33.6875 316.3125 C-34.73457123 316.30976578 -34.73457123 316.30976578 -35.80279541 316.30697632 C-47.09405562 316.25752249 -57.97764164 315.56933214 -69 313 C-69.721875 312.83902832 -70.44375 312.67805664 -71.1875 312.51220703 C-99.37164051 306.055409 -124.07205514 291.75341734 -145 272 C-145.67546875 271.37738281 -146.3509375 270.75476563 -147.046875 270.11328125 C-173.09853832 245.25999444 -192.47460276 205.62732247 -194.16113281 169.5534668 C-194.5419631 136.86627219 -194.5419631 136.86627219 -191 123 C-190.80664062 122.22366211 -190.61328125 121.44732422 -190.4140625 120.64746094 C-185.46146911 101.3338753 -177.40339892 83.35987817 -166 67 C-165.60151855 66.42652832 -165.20303711 65.85305664 -164.79248047 65.26220703 C-153.1215303 48.80536174 -137.99928671 33.87727285 -121 23 C-120.32759277 22.56896973 -119.65518555 22.13793945 -118.96240234 21.69384766 C-102.9085076 11.55552479 -86.3469705 4.80398442 -68 0 C-66.72769531 -0.34289062 -65.45539063 -0.68578125 -64.14453125 -1.0390625 C-44.35507299 -5.42760557 -19.56110328 -5.25343974 0 0 Z M-125 47 C-126.24523437 48.06347656 -126.24523437 48.06347656 -127.515625 49.1484375 C-155.27481136 73.41643785 -174.1613302 109.03673427 -177 146 C-178.92746604 185.63021343 -166.60987066 222.29694374 -140 252 C-115.94734831 278.40927481 -81.90070596 297.23062 -45.70874023 299.17700195 C-18.49250948 299.66750773 7.38292115 297.20749568 32 284.5 C43.65387579 278.93541121 60.12381449 284.22282541 72.5 286.0625 C75.3567167 286.48613701 78.21360081 286.90840797 81.07116699 287.32627869 C82.83575185 287.5843674 84.59986258 287.84572581 86.36340332 288.1108551 C90.27682957 288.68373881 94.03139176 289.16468717 98 289 C97.33692331 276.49772537 95.36756151 264.20143796 93.50854492 251.83374023 C93.09332353 249.06042427 92.68506745 246.28614538 92.27734375 243.51171875 C92.14923813 242.67509201 92.02113251 241.83846527 91.8891449 240.97648621 C90.75024613 233.1987618 89.9882829 226.87746107 94.0625 219.8125 C103.41445962 202.50993001 108.13737123 182.57089026 109 163 C109.04125 162.08476562 109.0825 161.16953125 109.125 160.2265625 C109.95274489 122.46070202 95.48839686 85.82372998 69.51171875 58.60546875 C68.68285156 57.74566406 67.85398437 56.88585937 67 56 C66.40832031 55.35675781 65.81664062 54.71351563 65.20703125 54.05078125 C40.68474682 28.07532441 3.27998807 14.7294653 -31.80859375 13.64648438 C-65.48438863 13.31632952 -99.4968714 24.83452917 -125 47 Z " fill="#000000" transform="translate(355,121)"/>
<path d="M0 0 C1.91153252 2.36638514 1.76909583 4.72174575 1.64453125 7.66796875 C1.296875 9.60546875 1.296875 9.60546875 -0.328125 12.04296875 C-3.35303668 14.03304222 -5.06033142 14.44635823 -8.703125 14.60546875 C-11.77998246 13.56173852 -14.58305078 12.05464905 -17.453125 10.54296875 C-30.95895811 3.79989514 -44.81932782 -0.79873726 -59.703125 -3.39453125 C-60.70214844 -3.57886719 -61.70117188 -3.76320313 -62.73046875 -3.953125 C-100.46001848 -8.14529719 -137.93551532 1.90836659 -167.99902344 25.23291016 C-173.17331433 29.40051236 -177.98764115 33.9306761 -182.703125 38.60546875 C-183.56550781 39.45496094 -184.42789063 40.30445313 -185.31640625 41.1796875 C-201.98951028 58.54418021 -213.86061115 81.33041359 -219.703125 104.60546875 C-220.02023438 105.806875 -220.33734375 107.00828125 -220.6640625 108.24609375 C-225.24944351 129.0275453 -224.52916838 153.1832 -218.703125 173.60546875 C-218.52120605 174.26708008 -218.33928711 174.92869141 -218.15185547 175.61035156 C-216.45738482 181.62806949 -214.39947677 187.30619001 -211.60546875 192.88671875 C-211.2403418 193.62059814 -210.87521484 194.35447754 -210.49902344 195.1105957 C-209.78838279 196.50980643 -209.05511584 197.89788609 -208.29394531 199.27026367 C-203.50535437 208.55879611 -205.70731607 219.43857977 -207.19921875 229.390625 C-207.35221939 230.45413681 -207.50522003 231.51764862 -207.66285706 232.61338806 C-207.98425364 234.8365029 -208.30964642 237.05904346 -208.63891602 239.28100586 C-209.14379386 242.68936124 -209.63639488 246.09932256 -210.12695312 249.50976562 C-210.44200488 251.67848772 -210.75773544 253.84711135 -211.07421875 256.015625 C-211.22217392 257.03431168 -211.37012909 258.05299835 -211.52256775 259.10255432 C-211.73267235 260.51564125 -211.73267235 260.51564125 -211.94702148 261.95727539 C-212.06915512 262.78489883 -212.19128876 263.61252228 -212.31712341 264.46522522 C-212.703125 266.60546875 -212.703125 266.60546875 -213.703125 269.60546875 C-213.09243164 269.50524414 -212.48173828 269.40501953 -211.85253906 269.30175781 C-199.19144707 267.23147914 -186.51948651 265.23176072 -173.828125 263.35546875 C-172.68375977 263.18047852 -171.53939453 263.00548828 -170.36035156 262.82519531 C-159.18924913 261.20036713 -150.6768692 260.26557855 -140.578125 265.79296875 C-127.87116261 272.25190978 -115.15590233 275.67059758 -101.09375 277.734375 C-97.34565598 278.69730699 -95.43384176 279.89497952 -92.703125 282.60546875 C-91.46638249 286.23839989 -91.35854297 287.84738828 -92.953125 291.35546875 C-94.703125 293.60546875 -94.703125 293.60546875 -97.703125 295.60546875 C-114.73303209 296.6715464 -138.27425692 289.66789948 -152.47729492 280.45458984 C-155.82366537 279.17799925 -158.91472192 279.78373707 -162.37890625 280.25 C-163.15865311 280.34585892 -163.93839996 280.44171783 -164.74177551 280.54048157 C-176.93121137 282.07922263 -189.08266129 283.95499313 -201.22875977 285.80004883 C-204.46244997 286.28965601 -207.69778038 286.76684422 -210.93359375 287.2421875 C-212.40242256 287.47019295 -212.40242256 287.47019295 -213.90092468 287.70280457 C-219.11757158 288.4593253 -223.54731524 288.82868558 -228.703125 287.60546875 C-231.21254823 285.17969296 -232.12423773 282.99888957 -232.703125 279.60546875 C-232.53738631 277.52521092 -232.28249085 275.45146448 -231.97460938 273.38745117 C-231.79111938 272.12901901 -231.60762939 270.87058685 -231.4185791 269.57402039 C-231.31725174 268.90410254 -231.21592438 268.23418468 -231.11152649 267.54396629 C-230.79344913 265.43825788 -230.4854286 263.33129475 -230.18005371 261.22370911 C-229.41952776 255.98778413 -228.64405372 250.7541038 -227.86480713 245.52093506 C-227.2065663 241.09971706 -226.55612865 236.67750144 -225.91682434 232.2535038 C-225.61481614 230.18569232 -225.30139878 228.11981729 -224.9876709 226.05375671 C-224.71243591 224.15192375 -224.71243591 224.15192375 -224.43164062 222.21166992 C-224.26651978 221.1023259 -224.10139893 219.99298187 -223.93127441 218.85002136 C-223.57107381 213.72754578 -224.23624909 209.03500688 -226.375 204.36328125 C-226.70733643 203.61618896 -227.03967285 202.86909668 -227.38208008 202.09936523 C-227.7355249 201.31762939 -228.08896973 200.53589355 -228.453125 199.73046875 C-232.31289387 190.84394391 -235.40243113 182.01557421 -237.703125 172.60546875 C-238.0228125 171.34089844 -238.3425 170.07632813 -238.671875 168.7734375 C-240.99133936 158.31588583 -241.01774444 147.70457164 -241.078125 137.04296875 C-241.08607086 136.30878723 -241.09401672 135.57460571 -241.10220337 134.81817627 C-241.43748588 94.43889172 -224.21985161 56.60958599 -196.703125 27.60546875 C-196.23567871 27.10547363 -195.76823242 26.60547852 -195.28662109 26.09033203 C-173.94700853 3.3837692 -146.00745541 -12.21169501 -115.703125 -19.39453125 C-115.01444336 -19.55824219 -114.32576172 -19.72195312 -113.61621094 -19.890625 C-78.91675959 -27.66947375 -28.6723147 -23.47710172 0 0 Z " fill="#000000" transform="translate(272.703125,97.39453125)"/>
<path d="M0 0 C2.42444466 2.34623677 2.87624221 3.32367988 3.25 6.6875 C2.84784486 10.78948247 2.11776445 12.23770753 -1.0625 14.875 C-8.21013116 16.00954463 -13.30003592 13.80286888 -19.88671875 11.12109375 C-35.79850619 4.87772328 -54.3886097 6.76783056 -69.859375 13.453125 C-76.93584841 16.72077687 -83.26458201 20.66849077 -89.0625 25.875 C-89.88363281 26.60332031 -90.70476562 27.33164063 -91.55078125 28.08203125 C-105.30378484 41.00025465 -112.96183912 58.05992914 -114.0625 76.875 C-113.94571253 82.93565506 -113.73427873 89.01663008 -112.0625 94.875 C-111.59199219 93.97136719 -111.12148437 93.06773437 -110.63671875 92.13671875 C-110.00810122 90.94516014 -109.37917891 89.75376228 -108.75 88.5625 C-108.44126953 87.96759766 -108.13253906 87.37269531 -107.81445312 86.75976562 C-104.74754 80.98105563 -104.74754 80.98105563 -102.0625 78.875 C-98.46643206 77.78054454 -96.76576243 77.55533526 -93.3125 79.125 C-91.0625 80.875 -91.0625 80.875 -89.0625 83.875 C-88.42782174 89.0669755 -90.08122104 92.79307885 -92.38671875 97.3203125 C-92.7299971 98.01260956 -93.07327545 98.70490662 -93.42695618 99.41818237 C-94.15333352 100.87500518 -94.88573396 102.32883863 -95.6237793 103.77978516 C-96.74582339 105.9917663 -97.84170547 108.21536893 -98.93554688 110.44140625 C-99.64689997 111.86014696 -100.35974196 113.27814231 -101.07421875 114.6953125 C-101.39839279 115.35580597 -101.72256683 116.01629944 -102.05656433 116.69680786 C-104.14428623 120.74884341 -106.24216075 123.37253718 -110.0625 125.875 C-116.00347636 127.0836227 -120.46361252 123.87226503 -125.4375 121 C-126.31003418 120.50765869 -127.18256836 120.01531738 -128.08154297 119.50805664 C-149.77688114 107.16061886 -149.77688114 107.16061886 -154.0625 102.875 C-154.62325289 99.81742108 -154.58989799 96.93608317 -154.0625 93.875 C-151.58037959 90.8818548 -150.13868731 89.99440842 -146.28125 89.56640625 C-142.31638232 89.94653313 -140.05506374 91.279627 -136.6875 93.375 C-135.62789062 94.0246875 -134.56828125 94.674375 -133.4765625 95.34375 C-132.67992187 95.8490625 -131.88328125 96.354375 -131.0625 96.875 C-131.15789062 95.71226562 -131.25328125 94.54953125 -131.3515625 93.3515625 C-133.23438975 67.59969475 -128.73921195 43.2481632 -111.6875 23 C-86.11459103 -6.19793473 -35.24616867 -24.4565252 0 0 Z " fill="#000000" transform="translate(363.0625,198.125)"/>
<path d="M0 0 C2.78851819 1.01308955 5.30062268 2.40937566 7.875 3.875 C8.59953369 4.27412598 9.32406738 4.67325195 10.07055664 5.08447266 C12.39077621 6.37201354 14.69599183 7.68369722 17 9 C17.7955127 9.44859375 18.59102539 9.8971875 19.41064453 10.359375 C21.75959924 11.68665122 24.10033776 13.02708093 26.4375 14.375 C27.16501465 14.79120605 27.8925293 15.20741211 28.64208984 15.63623047 C31.87696949 17.53723485 33.88894923 18.83342384 36 22 C36.55822877 26.30633619 36.43927493 28.31983237 34.0625 32 C30.36991743 34.4114825 28.66423608 34.44993755 24.42578125 33.73046875 C20.25379191 32.47416922 16.65201024 30.33970396 13 28 C13.15855469 29.10472656 13.31710937 30.20945312 13.48046875 31.34765625 C16.48122062 55.61483788 12.09143583 78.36953356 -2.3125 98.375 C-18.98834257 119.26278219 -41.03192037 132.39522636 -67.6640625 135.6875 C-80.71879364 136.91042563 -93.08285163 135.16910295 -105.5625 131.25 C-106.3244165 131.02231934 -107.08633301 130.79463867 -107.87133789 130.56005859 C-113.2122801 128.77915049 -115.90043633 126.74122981 -119 122 C-119.06874509 118.01278471 -118.58331487 115.8749723 -116.375 112.5625 C-113.08123883 110.39555186 -110.90573701 110.74527802 -107 111 C-103.640625 112.0234375 -103.640625 112.0234375 -100.25 113.375 C-82.77112043 119.90414761 -65.19621459 119.29988917 -47.875 112.4375 C-30.25669592 104.30133905 -15.3558446 90.46963315 -8.42578125 72.01171875 C-5.38073705 63.30394236 -3.83282573 55.6799331 -3.875 46.5 C-3.87113281 45.65824219 -3.86726563 44.81648438 -3.86328125 43.94921875 C-3.8697567 39.83731013 -3.96468013 36.00981028 -5 32 C-8.36152463 35.03235456 -10.21728846 38.70938092 -12.40234375 42.625 C-14.06123484 45.09102881 -15.47621899 46.45603985 -18 48 C-20.9375 48.5 -20.9375 48.5 -24 48 C-26.875 45.9375 -26.875 45.9375 -29 43 C-29.54651893 37.52746391 -28.50640298 34.21752507 -25.89453125 29.4375 C-25.41290779 28.54502563 -25.41290779 28.54502563 -24.92155457 27.63452148 C-24.24317415 26.38381174 -23.55785012 25.13684561 -22.8659668 23.89355469 C-21.81939291 22.01238967 -20.79375566 20.12102432 -19.77148438 18.2265625 C-9.45690024 -0.74508911 -9.45690024 -0.74508911 0 0 Z " fill="#000000" transform="translate(397,232)"/>
</svg>
